<svg xmlns="http://www.w3.org/2000/svg" xmlns:xlink="http://www.w3.org/1999/xlink" viewBox="397 748 230 231" preserveAspectRatio="xMidYMid meet"><defs><clipPath id="2940e0ead8"><path d="M 397.484375 748.714844 L 626.871094 748.714844 L 626.871094 978.851562 L 397.484375 978.851562 Z M 397.484375 748.714844 " clip-rule="nonzero"/></clipPath></defs><g clip-path="url(#2940e0ead8)"><path fill="#65cf72" d="M 593.425781 782.246094 C 571.867188 760.710938 543.195312 748.832031 512.644531 748.832031 C 449.699219 748.832031 398.464844 799.941406 398.441406 862.773438 C 398.441406 882.851562 403.695312 902.464844 413.6875 919.738281 L 397.484375 978.785156 L 458.027344 962.933594 C 474.710938 972.019531 493.488281 976.792969 512.601562 976.804688 L 512.644531 976.804688 C 575.582031 976.804688 626.828125 925.683594 626.839844 862.863281 C 626.839844 832.414062 614.988281 803.792969 593.414062 782.246094 Z M 512.644531 957.566406 L 512.613281 957.566406 C 495.585938 957.566406 478.871094 952.996094 464.296875 944.367188 L 460.832031 942.308594 L 424.902344 951.710938 L 434.484375 916.757812 L 432.230469 913.175781 C 422.726562 898.101562 417.710938 880.667969 417.722656 862.773438 C 417.746094 810.558594 460.328125 768.070312 512.679688 768.070312 C 538.035156 768.070312 561.863281 777.9375 579.785156 795.847656 C 597.710938 813.742188 607.570312 837.542969 607.558594 862.851562 C 607.535156 915.078125 564.949219 957.566406 512.632812 957.566406 Z M 564.710938 886.640625 C 561.863281 885.21875 547.835938 878.328125 545.214844 877.382812 C 542.59375 876.429688 540.699219 875.960938 538.796875 878.804688 C 536.894531 881.660156 531.425781 888.070312 529.761719 889.96875 C 528.097656 891.871094 526.433594 892.109375 523.574219 890.675781 C 520.726562 889.253906 511.527344 886.242188 500.625 876.542969 C 492.144531 868.992188 486.414062 859.667969 484.75 856.816406 C 483.085938 853.960938 484.578125 852.425781 486.003906 851.003906 C 487.28125 849.730469 488.851562 847.671875 490.289062 846.011719 C 491.710938 844.351562 492.191406 843.160156 493.136719 841.261719 C 494.09375 839.359375 493.617188 837.699219 492.898438 836.269531 C 492.179688 834.847656 486.480469 820.828125 484.101562 815.128906 C 481.785156 809.582031 479.429688 810.332031 477.683594 810.242188 C 476.019531 810.160156 474.117188 810.140625 472.214844 810.140625 C 470.3125 810.140625 467.222656 810.84375 464.601562 813.699219 C 461.980469 816.550781 454.621094 823.441406 454.621094 837.449219 C 454.621094 851.460938 464.84375 865 466.277344 866.910156 C 467.703125 868.808594 486.402344 897.566406 515.027344 909.902344 C 521.832031 912.835938 527.152344 914.585938 531.300781 915.90625 C 538.136719 918.078125 544.359375 917.769531 549.269531 917.03125 C 554.75 916.214844 566.148438 910.140625 568.527344 903.488281 C 570.910156 896.839844 570.910156 891.140625 570.191406 889.949219 C 569.472656 888.753906 567.570312 888.050781 564.722656 886.617188 Z M 564.710938 886.640625 " fill-opacity="1" fill-rule="evenodd"/></g></svg>