<svg xmlns="http://www.w3.org/2000/svg" xmlns:xlink="http://www.w3.org/1999/xlink" width="1366" zoomAndPan="magnify" viewBox="0 0 1024.5 1152" height="1536" preserveAspectRatio="xMidYMid meet" version="1.0"><defs><clipPath id="2e520ff5da"><path d="M 352.882812 748.714844 L 671.476562 748.714844 L 671.476562 978.851562 L 352.882812 978.851562 Z M 352.882812 748.714844 " clip-rule="nonzero"/></clipPath></defs><g clip-path="url(#2e520ff5da)"><path fill="#000000" d="M 643.917969 748.714844 L 380.441406 748.714844 C 365.292969 748.714844 352.996094 760.988281 352.996094 776.113281 L 352.996094 951.457031 C 352.996094 966.578125 365.292969 978.851562 380.441406 978.851562 L 643.917969 978.851562 C 659.066406 978.851562 671.363281 966.578125 671.363281 951.457031 L 671.363281 776.113281 C 671.363281 760.988281 659.066406 748.714844 643.917969 748.714844 Z M 568.550781 852.933594 L 658.519531 768.605469 C 659.671875 770.90625 660.382812 773.429688 660.382812 776.113281 L 660.382812 951.457031 C 660.382812 953.539062 659.945312 955.511719 659.230469 957.375 Z M 643.917969 759.675781 C 646.277344 759.675781 648.527344 760.167969 650.503906 761.097656 L 512.179688 890.742188 L 373.855469 761.097656 C 375.832031 760.167969 378.082031 759.675781 380.441406 759.675781 Z M 365.125 957.375 C 364.414062 955.511719 363.972656 953.539062 363.972656 951.457031 L 363.972656 776.113281 C 363.972656 773.429688 364.6875 770.90625 365.839844 768.660156 L 455.804688 852.988281 Z M 380.441406 967.894531 C 377.476562 967.894531 374.789062 967.074219 372.371094 965.703125 L 463.820312 860.441406 L 508.390625 902.25 C 509.433594 903.238281 510.808594 903.730469 512.125 903.730469 C 513.441406 903.730469 514.8125 903.238281 515.855469 902.25 L 560.429688 860.441406 L 651.984375 965.703125 C 649.570312 967.074219 646.882812 967.894531 643.917969 967.894531 Z M 380.441406 967.894531 " fill-opacity="1" fill-rule="nonzero"/></g></svg>